<svg viewBox="0 0 48 48" fill="none" xmlns="http://www.w3.org/2000/svg"><g id="SVGRepo_bgCarrier" stroke-width="0"></g><g id="SVGRepo_tracerCarrier" stroke-linecap="round" stroke-linejoin="round"></g><g id="SVGRepo_iconCarrier"> <g id="graph 2"> <g id="graph 2_2"> <path id="Combined Shape" fill-rule="evenodd" clip-rule="evenodd" d="M33 26.028V37C33 37.5523 32.5523 38 32 38C31.4477 38 31 37.5523 31 37V26.028H25.5646C25.2528 26.028 25.0006 26.2804 25.0006 26.594V40H38.434C38.7457 40 39 39.7457 39 39.434V6.566C39 6.25428 38.7457 6 38.434 6H33.566C33.2543 6 33 6.25428 33 6.566V24.028H34.0006C34.5529 24.028 35.0006 24.4757 35.0006 25.028C35.0006 25.5803 34.5529 26.028 34.0006 26.028H33ZM31 24.028H25.5646C25.3706 24.028 25.1816 24.0495 25 24.0903V18.618C25 17.2002 23.8508 16.05 22.434 16.05H17.566C16.1492 16.05 15 17.2002 15 18.618V31.9726H9.566C8.15022 31.9726 7 33.1218 7 34.5366V39.4066C7 40.8229 8.14972 41.9726 9.566 41.9726H15.7665C15.8414 41.9905 15.9196 42 16 42C16.0804 42 16.1586 41.9905 16.2335 41.9726H20C20.5523 41.9726 21 41.5249 21 40.9726C21 40.4203 20.5523 39.9726 20 39.9726H17V18.618C17 18.3044 17.2542 18.05 17.566 18.05H22.434C22.7458 18.05 23 18.3044 23 18.618V43C23 43.5523 23.4477 44 24 44C24.5523 44 25 43.5523 25 43V42H38.434H38.4346L38.4411 42C39.8541 41.9962 41 40.8479 41 39.434V6.566C41 5.14972 39.8503 4 38.434 4H33.566C32.1497 4 31 5.14972 31 6.566V24.028ZM15 39.9726V33.9726H9.566C9.2544 33.9726 9 34.2268 9 34.5366V39.4066C9 39.7183 9.25428 39.9726 9.566 39.9726H15Z" fill="#f04b98"></path> </g> </g> </g></svg>